<?xml version="1.0" encoding="UTF-8"?>
<svg version="1.1" xmlns="http://www.w3.org/2000/svg" width="1024" height="572">
<path d="M0 0 C337.92 0 675.84 0 1024 0 C1024 188.76 1024 377.52 1024 572 C686.08 572 348.16 572 0 572 C0 383.24 0 194.48 0 0 Z " fill="#F1F3F5" transform="translate(0,0)"/>
<path d="M0 0 C0.65355469 0.38285156 1.30710937 0.76570313 1.98046875 1.16015625 C7.03354532 6.06239472 7.77459016 13.75206513 9 20.375 C9.17724609 21.29732422 9.35449219 22.21964844 9.53710938 23.16992188 C9.96934042 25.42453248 10.3942789 27.68025626 10.8125 29.9375 C1.91417622 32.65488548 -6.97024118 35.209369 -16.04370117 37.27856445 C-23.03344611 38.87856993 -29.98393035 40.62517847 -36.9375 42.375 C-40.5442429 43.27680671 -44.15126818 44.17747785 -47.75830078 45.078125 C-49.95805344 45.62939435 -52.1570229 46.18380395 -54.35498047 46.7421875 C-57.19270419 47.46264345 -60.03333718 48.17026969 -62.875 48.875 C-63.69258789 49.08632568 -64.51017578 49.29765137 -65.35253906 49.51538086 C-72.18732676 51.18852437 -78.46794077 51.71899898 -85.3359375 49.95703125 C-91.74985142 48.38482998 -98.24441051 48.59642889 -104.8125 48.625 C-105.48212769 48.62715515 -106.15175537 48.6293103 -106.8416748 48.63153076 C-116.63915979 48.68223874 -125.74628512 49.09323939 -135.1875 51.9375 C-135.86570801 52.12554199 -136.54391602 52.31358398 -137.24267578 52.50732422 C-153.857969 57.14543738 -169.00654969 65.00442361 -181.9375 76.4921875 C-185.02194234 78.47351331 -188.29388723 79.25882808 -191.8125 80.125 C-192.493125 80.30224609 -193.17375 80.47949219 -193.875 80.66210938 C-198.85837958 81.9375 -198.85837958 81.9375 -201.1875 81.9375 C-198.7125 85.4025 -198.7125 85.4025 -196.1875 88.9375 C-197.81832317 92.53389425 -200.00494784 95.55400006 -202.3125 98.75 C-209.60739155 109.17717804 -215.04825285 119.7571811 -219.1875 131.8125 C-219.49059082 132.68003906 -219.79368164 133.54757813 -220.10595703 134.44140625 C-221.89484752 139.92887772 -222.98619386 145.15244779 -222.1875 150.9375 C-220.82987846 153.71314845 -220.82987846 153.71314845 -218.1875 154.9375 C-214.66938593 155.34052902 -214.66938593 155.34052902 -211.1875 153.9375 C-207.40232223 149.8684339 -205.38757253 145.30469712 -203 140.3125 C-195.05520594 123.81856052 -182.32846377 111.83646086 -167.1875 101.9375 C-166.5275 102.2675 -165.8675 102.5975 -165.1875 102.9375 C-165.75339844 103.70835937 -166.31929688 104.47921875 -166.90234375 105.2734375 C-167.63582031 106.27632813 -168.36929688 107.27921875 -169.125 108.3125 C-169.85589844 109.31023437 -170.58679688 110.30796875 -171.33984375 111.3359375 C-173.1654569 113.76567109 -173.1654569 113.76567109 -174.1875 115.9375 C-166.5975 116.2675 -159.0075 116.5975 -151.1875 116.9375 C-150.5275 115.2875 -149.8675 113.6375 -149.1875 111.9375 C-148.16386378 110.36688897 -147.08603117 108.8306525 -145.96484375 107.328125 C-145.34416016 106.49152344 -144.72347656 105.65492188 -144.08398438 104.79296875 C-143.43751953 103.93316406 -142.79105469 103.07335937 -142.125 102.1875 C-141.14950195 100.87458984 -141.14950195 100.87458984 -140.15429688 99.53515625 C-135.39060125 93.14060125 -135.39060125 93.14060125 -134.1875 91.9375 C-132.55277118 91.85049658 -130.91435945 91.83048937 -129.27734375 91.83984375 C-128.28798828 91.84306641 -127.29863281 91.84628906 -126.27929688 91.84960938 C-125.23837891 91.85798828 -124.19746094 91.86636719 -123.125 91.875 C-121.55782227 91.88176758 -121.55782227 91.88176758 -119.95898438 91.88867188 C-117.3684334 91.90050087 -114.77799441 91.91698311 -112.1875 91.9375 C-113.431123 95.31016746 -114.82755082 98.09740871 -116.9375 101.00390625 C-117.4634375 101.73673828 -117.989375 102.46957031 -118.53125 103.22460938 C-119.35109375 104.35092773 -119.35109375 104.35092773 -120.1875 105.5 C-121.27336743 106.99947023 -122.35679088 108.50071403 -123.4375 110.00390625 C-123.91703125 110.66334229 -124.3965625 111.32277832 -124.890625 112.00219727 C-126.17505713 113.91893173 -127.20344385 115.85305323 -128.1875 117.9375 C-115.04112939 119.42801594 -115.04112939 119.42801594 -103.05078125 115.36816406 C-99.64135994 111.60312431 -97.20905808 107.31530448 -95.05932617 102.73095703 C-94.1875 100.9375 -94.1875 100.9375 -92.1875 97.9375 C-85.84410349 99.74360595 -80.61811745 102.19377734 -75.1875 105.9375 C-76.63794271 110.04708767 -78.69860752 113.37008745 -81.1875 116.9375 C-77.5575 116.9375 -73.9275 116.9375 -70.1875 116.9375 C-70.1875 117.5975 -70.1875 118.2575 -70.1875 118.9375 C-71.69140625 120.41796875 -71.69140625 120.41796875 -73.75 122.125 C-77.29746174 125.12427493 -80.55272872 128.27745132 -83.7421875 131.65234375 C-85.1875 132.9375 -85.1875 132.9375 -87.1875 132.9375 C-87.5175 133.9275 -87.8475 134.9175 -88.1875 135.9375 C-89.71875 137.44311523 -89.71875 137.44311523 -91.6875 139.05859375 C-97.29657685 143.81656068 -102.35211587 149.08477997 -107.4765625 154.35351562 C-113.26519649 160.22669152 -119.16851641 165.23666244 -126.3125 169.375 C-131.36363591 172.47727245 -134.86542815 176.35345048 -137.5625 181.625 C-139.10768913 189.81450239 -138.99458356 197.45461163 -135.1875 204.9375 C-133.06301522 207.72885579 -133.06301522 207.72885579 -130.1875 209.9375 C-129.67960937 210.40414062 -129.17171875 210.87078125 -128.6484375 211.3515625 C-122.10527532 216.51114853 -114.04968592 215.79666671 -106.1875 214.9375 C-99.78136177 213.30229955 -95.89136457 209.2224995 -92.1875 203.9375 C-91.10436711 202.10035448 -90.04089359 200.25154391 -88.9921875 198.39453125 C-85.42876541 192.23362716 -81.49153306 186.42606828 -77.375 180.625 C-72.16437208 173.22245632 -67.00955518 165.80075464 -62.10620117 158.19018555 C-59.39862518 154.04306259 -59.39862518 154.04306259 -57.1875 152.9375 C-45.46505705 161.926087 -33.76816215 170.95055425 -22.171875 180.1015625 C-21.54917725 180.59277588 -20.92647949 181.08398926 -20.28491211 181.59008789 C-19.14388933 182.4913882 -18.00396725 183.39408487 -16.86547852 184.29858398 C-15.31552234 185.52350645 -13.751543 186.73061613 -12.1875 187.9375 C-11.59332275 188.40091797 -10.99914551 188.86433594 -10.38696289 189.34179688 C-9.78231201 189.79748047 -9.17766113 190.25316406 -8.5546875 190.72265625 C-8.01054199 191.13781494 -7.46639648 191.55297363 -6.90576172 191.98071289 C-4.16493104 193.5069015 -1.99127121 193.51931113 1.04199219 192.88647461 C5.27436382 190.61796543 6.37551127 184.3197759 7.7355957 180.01757812 C8.65416258 176.85443448 9.52357335 173.68184836 10.375 170.5 C10.95876046 168.35523041 11.54338548 166.21069594 12.12890625 164.06640625 C12.41008301 163.03660645 12.69125977 162.00680664 12.98095703 160.94580078 C13.76974094 158.09219087 14.57243114 155.24426043 15.40234375 152.40234375 C15.62656006 151.63398193 15.85077637 150.86562012 16.08178711 150.07397461 C16.8219432 147.90988975 17.77267093 145.97118773 18.8125 143.9375 C18.9061371 158.25460098 18.97630742 172.57165415 19.01974869 186.88899899 C19.04060101 193.53753188 19.06887607 200.18580389 19.11425781 206.83422852 C19.1577986 213.2533069 19.18165486 219.67218736 19.19200897 226.09140205 C19.19938547 228.5373604 19.21379001 230.98330822 19.23542023 233.42918205 C19.26456259 236.86179681 19.26845133 240.2935993 19.26660156 243.72631836 C19.28098267 244.73189285 19.29536377 245.73746735 19.31018066 246.77351379 C19.26645419 254.29903177 17.90226792 260.84773208 12.4375 266.3125 C6.04250965 270.27130355 1.6733574 271.37640379 -5.73873901 271.33190918 C-6.69377229 271.33800028 -7.64880556 271.34409139 -8.63277924 271.35036707 C-11.82936341 271.36700116 -15.02554943 271.36222058 -18.22216797 271.35742188 C-20.51546645 271.36476195 -22.80876123 271.373348 -25.10205078 271.38308716 C-31.32933944 271.40531828 -37.55649583 271.40823302 -43.78381872 271.40633965 C-48.98268438 271.40622002 -54.18152195 271.41478102 -59.3803798 271.42311716 C-72.34702762 271.44345716 -85.31358945 271.44449923 -98.28024639 271.43731004 C-109.53277663 271.43173539 -120.78507913 271.45255827 -132.03755616 271.48567051 C-143.60009959 271.51943027 -155.1625061 271.53409868 -166.72510254 271.52995348 C-173.21322603 271.52788514 -179.70112272 271.53337876 -186.18920517 271.55784607 C-192.29111448 271.58009664 -198.39254964 271.57824883 -204.49446106 271.55791855 C-206.73256421 271.55450557 -208.97069918 271.55960989 -211.20875931 271.57390213 C-214.26715705 271.59208372 -217.32394441 271.57935257 -220.3822937 271.55895996 C-221.26538015 271.57147781 -222.1484666 271.58399566 -223.05831325 271.59689283 C-229.98265141 271.49808958 -234.68790381 269.24242671 -239.71511638 264.49485922 C-244.46298679 259.22731867 -245.4371222 253.92760032 -245.4390564 247.02163696 C-245.44202654 246.34992977 -245.44499667 245.67822259 -245.44805682 244.98616064 C-245.45566065 242.74800973 -245.44921756 240.51012409 -245.44287109 238.27197266 C-245.44562291 236.66159895 -245.44930396 235.0512266 -245.45384216 233.44085693 C-245.46194303 229.97709952 -245.4641253 226.51340662 -245.46189499 223.04964066 C-245.45905367 217.55870584 -245.47344716 212.06789887 -245.49087524 206.57699585 C-245.53781543 190.96394794 -245.56181788 175.35090832 -245.56835938 159.73779297 C-245.57212618 151.11124801 -245.59028864 142.48484752 -245.62345374 133.85836446 C-245.64353026 128.41510584 -245.64610531 122.97222343 -245.63517356 117.5289433 C-245.63254101 114.11924012 -245.64669398 110.70974966 -245.66525459 107.30010223 C-245.67051631 105.73619493 -245.66918499 104.17224693 -245.66021919 102.60835648 C-245.60983939 93.03715182 -246.65295681 84.62040241 -249.28174782 75.39668846 C-250.46597234 70.87397699 -251.10443005 66.55846429 -250.1875 61.9375 C-247.60308761 57.65985191 -244.89432829 55.40051137 -240.01953125 54.078125 C-238.68089728 53.77584182 -237.34093061 53.47942658 -236 53.1875 C-234.45404023 52.83764258 -232.90848916 52.48597583 -231.36328125 52.1328125 C-230.111521 51.84712402 -230.111521 51.84712402 -228.83447266 51.55566406 C-224.10399582 50.45092625 -219.39725628 49.25192929 -214.6875 48.0625 C-205.32404499 45.70580828 -195.94392321 43.42842343 -186.55151367 41.19018555 C-178.3540005 39.23134076 -170.18070239 37.18392032 -162.00927734 35.11938477 C-155.29819728 33.4352627 -148.56673884 31.87567917 -141.8125 30.375 C-134.56491001 28.7624352 -127.4269094 26.9366636 -120.29321289 24.88256836 C-112.55916266 22.69143849 -104.72810747 20.95103664 -96.88989258 19.17700195 C-89.35390217 17.46274011 -81.87007574 15.61350316 -74.41235352 13.5859375 C-70.16492743 12.43449415 -65.90991609 11.410362 -61.61010742 10.47363281 C-56.93425394 9.43884754 -52.28130891 8.30636411 -47.625 7.1875 C-46.54887451 6.9301709 -45.47274902 6.6728418 -44.36401367 6.40771484 C-38.70836883 5.04924105 -33.06308536 3.65905695 -27.4296875 2.2109375 C-26.35017822 1.93475586 -25.27066895 1.65857422 -24.15844727 1.37402344 C-22.09742298 0.84446908 -20.03792367 0.30893311 -17.98022461 -0.23339844 C-5.52417917 -3.42918108 -5.52417917 -3.42918108 0 0 Z " fill="#7640D6" transform="translate(628.1875,104.0625)"/>
<path d="M0 0 C0.65355469 0.38285156 1.30710937 0.76570313 1.98046875 1.16015625 C7.03354532 6.06239472 7.77459016 13.75206513 9 20.375 C9.17724609 21.29732422 9.35449219 22.21964844 9.53710938 23.16992188 C9.96934042 25.42453248 10.3942789 27.68025626 10.8125 29.9375 C1.91417622 32.65488548 -6.97024118 35.209369 -16.04370117 37.27856445 C-23.03344611 38.87856993 -29.98393035 40.62517847 -36.9375 42.375 C-40.5442429 43.27680671 -44.15126818 44.17747785 -47.75830078 45.078125 C-49.95805344 45.62939435 -52.1570229 46.18380395 -54.35498047 46.7421875 C-57.19270419 47.46264345 -60.03333718 48.17026969 -62.875 48.875 C-63.69258789 49.08632568 -64.51017578 49.29765137 -65.35253906 49.51538086 C-72.18732676 51.18852437 -78.46794077 51.71899898 -85.3359375 49.95703125 C-91.74985142 48.38482998 -98.24441051 48.59642889 -104.8125 48.625 C-105.48212769 48.62715515 -106.15175537 48.6293103 -106.8416748 48.63153076 C-116.63915979 48.68223874 -125.74628512 49.09323939 -135.1875 51.9375 C-135.86570801 52.12554199 -136.54391602 52.31358398 -137.24267578 52.50732422 C-153.857969 57.14543738 -169.00654969 65.00442361 -181.9375 76.4921875 C-185.02194234 78.47351331 -188.29388723 79.25882808 -191.8125 80.125 C-192.493125 80.30224609 -193.17375 80.47949219 -193.875 80.66210938 C-198.85837958 81.9375 -198.85837958 81.9375 -201.1875 81.9375 C-198.7125 85.4025 -198.7125 85.4025 -196.1875 88.9375 C-198.3604466 93.72028193 -201.56577865 97.80373979 -204.60546875 102.0625 C-208.03281467 107.20611143 -211.07312709 112.59857501 -214.1875 117.9375 C-229.0375 117.4425 -229.0375 117.4425 -244.1875 116.9375 C-244.249375 113.039375 -244.31125 109.14125 -244.375 105.125 C-244.63290354 95.66160405 -245.75423624 87.17126059 -248.43994141 78.10961914 C-250.02838632 72.73749607 -251.4676633 67.54694284 -250.1875 61.9375 C-247.60308761 57.65985191 -244.89432829 55.40051137 -240.01953125 54.078125 C-238.68089728 53.77584182 -237.34093061 53.47942658 -236 53.1875 C-234.45404023 52.83764258 -232.90848916 52.48597583 -231.36328125 52.1328125 C-230.111521 51.84712402 -230.111521 51.84712402 -228.83447266 51.55566406 C-224.10399582 50.45092625 -219.39725628 49.25192929 -214.6875 48.0625 C-205.32404499 45.70580828 -195.94392321 43.42842343 -186.55151367 41.19018555 C-178.3540005 39.23134076 -170.18070239 37.18392032 -162.00927734 35.11938477 C-155.29819728 33.4352627 -148.56673884 31.87567917 -141.8125 30.375 C-134.56491001 28.7624352 -127.4269094 26.9366636 -120.29321289 24.88256836 C-112.55916266 22.69143849 -104.72810747 20.95103664 -96.88989258 19.17700195 C-89.35390217 17.46274011 -81.87007574 15.61350316 -74.41235352 13.5859375 C-70.16492743 12.43449415 -65.90991609 11.410362 -61.61010742 10.47363281 C-56.93425394 9.43884754 -52.28130891 8.30636411 -47.625 7.1875 C-46.54887451 6.9301709 -45.47274902 6.6728418 -44.36401367 6.40771484 C-38.70836883 5.04924105 -33.06308536 3.65905695 -27.4296875 2.2109375 C-26.35017822 1.93475586 -25.27066895 1.65857422 -24.15844727 1.37402344 C-22.09742298 0.84446908 -20.03792367 0.30893311 -17.98022461 -0.23339844 C-5.52417917 -3.42918108 -5.52417917 -3.42918108 0 0 Z " fill="#3E464E" transform="translate(628.1875,104.0625)"/>
<path d="M0 0 C1.01320313 0.26683594 2.02640625 0.53367188 3.0703125 0.80859375 C17.03680621 4.99854186 29.31848015 12.45600521 41 21 C41.99 21.66 42.98 22.32 44 23 C40.83490989 30.20937191 33.81862924 35.22703447 27.96484375 40.2578125 C24.83636791 43.03176921 21.91419887 46.00383929 19 49 C15.38334902 47.36862283 12.38431489 45.14878862 9.1875 42.8125 C-7.93618133 30.65655716 -26.51075964 25.6329387 -47.375 25.6875 C-48.59960938 25.67138672 -49.82421875 25.65527344 -51.0859375 25.63867188 C-75.17862714 25.62591092 -96.31599393 35.8358405 -113.3828125 52.37890625 C-123.84857711 62.86029141 -130.63543898 74.74855836 -137 88 C-138.33312046 84.00063863 -137.22073065 81.14995277 -136.0625 77.25 C-135.84013672 76.4971875 -135.61777344 75.744375 -135.38867188 74.96875 C-132.91400164 67.06042045 -129.11557765 60.15124133 -125 53 C-124.60296875 52.19433594 -124.2059375 51.38867188 -123.796875 50.55859375 C-115.33910255 33.42213689 -98.99745254 20.61763015 -83 11 C-82.24332031 10.51789063 -81.48664063 10.03578125 -80.70703125 9.5390625 C-57.34071865 -4.65246972 -26.0088176 -6.93768691 0 0 Z " fill="#801E86" transform="translate(551,163)"/>
<path d="M0 0 C4.00957987 3.08030321 6.774091 6.16636262 9.4375 10.4375 C10.01455688 11.34653076 10.01455688 11.34653076 10.60327148 12.27392578 C14.31702072 18.26024471 17.25228723 24.5132428 20 31 C24.17578378 30.42705563 28.30883048 29.78585675 32.4375 28.9375 C33.73494141 28.67259766 33.73494141 28.67259766 35.05859375 28.40234375 C35.69925781 28.26957031 36.33992187 28.13679688 37 28 C36.03454993 34.93106695 34.32626542 41.35021455 32.02856445 47.95727539 C30.31682726 52.92361046 28.86768424 57.92891454 27.5 63 C22.17769177 82.64461647 22.17769177 82.64461647 19 89 C15.6211647 87.45987972 12.83119558 85.49030777 9.875 83.25 C9.36348389 82.86295898 8.85196777 82.47591797 8.32495117 82.07714844 C2.85460747 77.92164464 -2.56134297 73.69481511 -7.97265625 69.46289062 C-11.93448337 66.36771319 -15.91350597 63.30049596 -19.93359375 60.28125 C-21.11465698 59.39131348 -21.11465698 59.39131348 -22.31958008 58.48339844 C-23.83238468 57.34595137 -25.34903999 56.21360408 -26.86987305 55.08691406 C-27.54445557 54.57870117 -28.21903809 54.07048828 -28.9140625 53.546875 C-29.5117041 53.10182617 -30.1093457 52.65677734 -30.72509766 52.19824219 C-31.14581543 51.80282227 -31.5665332 51.40740234 -32 51 C-32 50.34 -32 49.68 -32 49 C-29.70967689 48.16280617 -27.41789043 47.3301071 -25.125 46.5 C-24.47402344 46.26152344 -23.82304688 46.02304688 -23.15234375 45.77734375 C-18.2265625 44 -18.2265625 44 -16 44 C-16.37253906 43.32453125 -16.74507812 42.6490625 -17.12890625 41.953125 C-17.60199219 41.06109375 -18.07507813 40.1690625 -18.5625 39.25 C-19.03816406 38.36828125 -19.51382813 37.4865625 -20.00390625 36.578125 C-21.13536365 33.64964703 -20.96912214 32.88905744 -20 30 C-18.5588176 27.62841118 -17.08606053 25.33842742 -15.52734375 23.046875 C-15.0848378 22.38665344 -14.64233185 21.72643188 -14.18641663 21.04620361 C-12.77549723 18.94378885 -11.3566377 16.84687385 -9.9375 14.75 C-8.97798673 13.32327222 -8.01899613 11.89619278 -7.06054688 10.46875 C-4.71307083 6.9750611 -2.3584604 3.48628218 0 0 Z " fill="#AD338A" transform="translate(607,200)"/>
<path d="M0 0 C0 3.65139075 -0.86585129 4.5363916 -3 7.4375 C-5.6143041 11.06211285 -8.16288099 14.70765162 -10.625 18.4375 C-14.15796012 23.76432746 -17.75824953 29.04225828 -21.375 34.3125 C-25.16029439 39.83128717 -28.92754846 45.35945506 -32.625 50.9375 C-37.34620227 58.05446235 -42.13973566 65.12204142 -46.9375 72.1875 C-47.34079529 72.78157654 -47.74409058 73.37565308 -48.15960693 73.98773193 C-52.40590033 80.24248988 -56.65539078 86.4950596 -60.91041565 92.74388123 C-62.61531138 95.24814684 -64.31897337 97.75325047 -66.02249146 100.25845337 C-66.82677825 101.44049881 -67.63166757 102.62213456 -68.43722534 103.80331421 C-72.90626325 110.35630688 -77.26750578 116.93066248 -81.34301758 123.73730469 C-84.56175161 128.1326527 -88.83014976 130.28827891 -94.0703125 131.46484375 C-99.74517134 131.92105789 -103.77571458 129.44686704 -108 126 C-112.89351022 120.6045913 -113.34975446 117.14309087 -113.28125 109.984375 C-112.79049646 104.77693469 -110.3360144 102.23053958 -106.625 98.8125 C-104 97 -104 97 -101.34375 95.8515625 C-96.86488136 93.37144132 -93.53655006 90.10826983 -89.875 86.5625 C-89.12871338 85.85037354 -88.38242676 85.13824707 -87.61352539 84.40454102 C-82.65736892 79.65699759 -77.78603687 74.82876053 -72.96411133 69.9453125 C-69.83099658 66.7845191 -66.58027095 63.85213001 -63.19140625 60.97265625 C-59.62068792 57.75837326 -56.27505321 54.31669669 -52.91821289 50.88110352 C-50.18479582 48.10360591 -47.40711394 45.46182864 -44.4375 42.9375 C-38.1234722 37.48145492 -32.36323895 31.43002931 -26.5 25.5 C-12.51365035 11.35432659 -12.51365035 11.35432659 -6.56835938 6.34350586 C-4.24509146 4.35332166 -2.12870391 2.1952259 0 0 Z " fill="#711684" transform="translate(610,182)"/>
<path d="M0 0 C6.21604633 4.97283707 11.20150452 10.80725766 12.31640625 18.9140625 C12.46667326 29.0721123 11.34469108 37.52429606 3.9140625 45.21484375 C1.95357608 46.7995057 0.02491411 48.04668317 -2.1875 49.25 C-2.78046875 49.58644531 -3.3734375 49.92289062 -3.984375 50.26953125 C-10.87107549 53.49215392 -19.59269097 53.44600176 -26.84375 51.55859375 C-34.89498584 48.26365306 -40.48570888 43.06489237 -44.1875 35.25 C-47.03864502 27.6944657 -47.45003477 19.6884065 -44.234375 12.1953125 C-40.16311496 4.63006063 -34.86091985 -1.35860865 -26.5546875 -4.2109375 C-17.04619109 -6.37623866 -8.39711924 -4.61018311 0 0 Z " fill="#3D454D" transform="translate(358.1875,417.75)"/>
<path d="M0 0 C5.61 0 11.22 0 17 0 C29.80749516 30.0960246 29.80749516 30.0960246 31 37 C31.66 37 32.32 37 33 37 C33.13051758 36.266604 33.26103516 35.53320801 33.39550781 34.77758789 C33.95365543 32.2129492 34.6881017 29.98532319 35.671875 27.55859375 C36.00445312 26.73262695 36.33703125 25.90666016 36.6796875 25.05566406 C37.03289062 24.19166992 37.38609375 23.32767578 37.75 22.4375 C38.28753906 21.1086377 38.28753906 21.1086377 38.8359375 19.75292969 C41.51277794 13.14989612 44.23509446 6.56665066 47 0 C52.61 0 58.22 0 64 0 C64 18.48 64 36.96 64 56 C59.38 56 54.76 56 50 56 C49.67 46.1 49.34 36.2 49 26 C43.555 40.85 43.555 40.85 38 56 C34.04 56 30.08 56 26 56 C22 45.33333333 18 34.66666667 14 24 C13.67 34.23 13.34 44.46 13 55 C8.71 55 4.42 55 0 55 C0 36.85 0 18.7 0 0 Z " fill="#3E454E" transform="translate(240,414)"/>
<path d="M0 0 C5.24056138 3.12223253 8.89580311 6.08194625 11 12 C11 12.99 11 13.98 11 15 C8.77191841 15.10853983 6.54230068 15.18583307 4.3125 15.25 C3.07113281 15.29640625 1.82976563 15.3428125 0.55078125 15.390625 C-3.58628597 14.93550209 -4.98890023 13.76325093 -8 11 C-12.68934537 9.43688488 -16.51755525 9.47678421 -21.1875 11.125 C-24.73252453 13.48834969 -26.1942807 15.11075842 -28 19 C-28.88134949 25.56555858 -28.47853562 31.31839183 -25 37 C-21.3810377 40.52848824 -18.40900022 41.29323504 -13.5 41.5 C-8.61769312 41.30736476 -5.63953566 40.4528928 -2 37 C-1.34 35.35 -0.68 33.7 0 32 C-5.61 32 -11.22 32 -17 32 C-17 28.7 -17 25.4 -17 22 C-7.1 22 2.8 22 13 22 C13 39.91082803 13 39.91082803 7 46 C-0.42209989 52.92729323 -7.68306384 54.50439198 -17.71484375 54.30859375 C-25.59183458 53.56866239 -31.32441307 50.56573247 -36.6015625 44.71875 C-42.15199718 37.89698671 -43.51167936 30.42985298 -43.30859375 21.8046875 C-42.50128316 14.46735835 -39.53574861 8.46045744 -34.03125 3.5390625 C-23.8792338 -4.15304208 -11.62601719 -5.86795196 0 0 Z " fill="#4F0D5D" transform="translate(727,416)"/>
<path d="M0 0 C4.65571025 2.76826015 8.57598329 6.37956935 11.4375 11 C12.12109375 13.75 12.12109375 13.75 12.4375 16 C10.04043877 16.10854617 7.64834162 16.18753157 5.25 16.25 C4.57646484 16.28351563 3.90292969 16.31703125 3.20898438 16.3515625 C-1.78574174 16.44902057 -3.96085158 15.3521559 -7.5625 12 C-12.42514191 10.37911936 -16.68300077 10.26736691 -21.3125 12.5625 C-25.10611262 15.00064204 -26.34639152 17.63631664 -27.5625 22 C-28.28967892 27.8788831 -27.59898541 31.81267077 -24.5625 37 C-24.5625 37.66 -24.5625 38.32 -24.5625 39 C-23.94375 39.309375 -23.325 39.61875 -22.6875 39.9375 C-21.3125 40.625 -19.9375 41.3125 -18.5625 42 C-13.27944786 42.52657873 -8.89387143 42.64191122 -4.0625 40.3125 C-1.14110564 37.82679325 -1.14110564 37.82679325 1.4375 33 C-4.1725 33 -9.7825 33 -15.5625 33 C-15.5625 29.7 -15.5625 26.4 -15.5625 23 C-5.9925 23 3.5775 23 13.4375 23 C14.24107143 39.07142857 14.24107143 39.07142857 10.8125 43.6875 C9.13671875 45.4609375 9.13671875 45.4609375 7.4375 47 C6.509375 47.928125 5.58125 48.85625 4.625 49.8125 C-3.35578933 55.28951229 -11.76454153 56.11623283 -21.203125 54.56640625 C-28.33535794 52.80522603 -33.84053642 49.19636052 -37.875 42.9765625 C-38.89680975 41.01558937 -39.7563339 39.05784504 -40.5625 37 C-40.975 36.05125 -41.3875 35.1025 -41.8125 34.125 C-43.99969286 25.01169641 -42.28797672 17.79307975 -37.75 9.8125 C-35.3206708 6.68907674 -32.78165274 4.25945227 -29.5625 2 C-29.03398438 1.60425781 -28.50546875 1.20851563 -27.9609375 0.80078125 C-20.19377988 -4.07507761 -8.16887189 -3.69037857 0 0 Z " fill="#4F0E5D" transform="translate(548.5625,415)"/>
<path d="M0 0 C5.61 0 11.22 0 17 0 C17.50789062 1.41410156 18.01578125 2.82820313 18.5390625 4.28515625 C22.05987955 14.0503116 25.64720405 23.76219571 29.546875 33.3828125 C31.19699558 37.49037071 32.80084384 41.61283056 34.375 45.75 C34.63812988 46.43046387 34.90125977 47.11092773 35.17236328 47.81201172 C36.26114663 50.69468828 37 52.89017031 37 56 C32.38 56 27.76 56 23 56 C21.68 52.7 20.36 49.4 19 46 C11.41 45.67 3.82 45.34 -4 45 C-4.33 46.98 -4.66 48.96 -5 51 C-5.495 53.475 -5.495 53.475 -6 56 C-10.95 56 -15.9 56 -21 56 C-19.04995482 49.26184387 -16.85539555 42.72250202 -14.3125 36.1875 C-13.60788768 34.35944639 -12.90346658 32.53131906 -12.19921875 30.703125 C-11.83876465 29.77048828 -11.47831055 28.83785156 -11.10693359 27.87695312 C-9.98396005 24.95831169 -8.87458945 22.03484309 -7.76953125 19.109375 C-7.41012451 18.15909424 -7.05071777 17.20881348 -6.68041992 16.22973633 C-5.99052099 14.40452835 -5.30183022 12.57886313 -4.61450195 10.75268555 C-4.14403442 9.51192261 -4.14403442 9.51192261 -3.6640625 8.24609375 C-3.39029785 7.52091553 -3.1165332 6.7957373 -2.83447266 6.04858398 C-1.99450167 3.98650191 -0.9957644 1.9915288 0 0 Z " fill="#4F0D5D" transform="translate(586,414)"/>
<path d="M0 0 C4.29 0 8.58 0 13 0 C13.01401855 1.58868896 13.01401855 1.58868896 13.02832031 3.20947266 C13.06833849 7.15715851 13.1341291 11.10407471 13.20751953 15.05126953 C13.23566087 16.75624671 13.25690935 18.46135269 13.27099609 20.16650391 C13.29252137 22.62469089 13.339217 25.08134048 13.390625 27.5390625 C13.39185364 28.29555084 13.39308228 29.05203918 13.39434814 29.83145142 C13.53419819 34.93997801 14.59267635 37.97031985 18 42 C20.65502755 42.86807158 20.65502755 42.86807158 23.5 42.625 C24.90765625 42.61339844 24.90765625 42.61339844 26.34375 42.6015625 C29.84221106 41.80926397 30.84911018 40.87963418 33 38 C33.41779971 34.98272374 33.60479843 32.3161328 33.609375 29.296875 C33.62591125 28.45908508 33.64244751 27.62129517 33.65948486 26.75811768 C33.70797499 24.08867063 33.72933745 21.41979326 33.75 18.75 C33.77815893 16.93747132 33.80808625 15.1249692 33.83984375 13.3125 C33.91373394 8.87504691 33.96330214 4.43791023 34 0 C38.29 0 42.58 0 47 0 C47.12419787 5.69246586 47.2146204 11.38413197 47.2746582 17.07763672 C47.29970241 19.01169587 47.33374811 20.94566131 47.37719727 22.87939453 C47.4382965 25.66983231 47.46631051 28.4590121 47.48828125 31.25 C47.51408768 32.10553467 47.5398941 32.96106934 47.56648254 33.8425293 C47.56969084 40.81077242 45.32938745 45.47527562 40.55683899 50.52783203 C34.279292 56.18713041 27.49687854 56.45774849 19.41015625 56.3046875 C11.51410215 55.59919813 7.38006486 51.86923282 2.34765625 46 C0.17461048 42.77507411 -0.12563602 39.70098162 -0.11352539 35.87402344 C-0.11344986 35.07349548 -0.11337433 34.27296753 -0.11329651 33.44818115 C-0.10813522 32.59387512 -0.10297394 31.73956909 -0.09765625 30.859375 C-0.0962413 29.97719299 -0.09482635 29.09501099 -0.09336853 28.18609619 C-0.08778001 25.37402935 -0.07522961 22.5620427 -0.0625 19.75 C-0.05748352 17.84114698 -0.05292087 15.93229272 -0.04882812 14.0234375 C-0.03781434 9.34892753 -0.02055758 4.67447735 0 0 Z " fill="#4C0B5B" transform="translate(629,414)"/>
<path d="M0 0 C12.54 0 25.08 0 38 0 C38 3.63 38 7.26 38 11 C30.08 11 22.16 11 14 11 C14 14.63 14 18.26 14 22 C20.93 22 27.86 22 35 22 C35 25.3 35 28.6 35 32 C28.07 32 21.14 32 14 32 C14 35.96 14 39.92 14 44 C21.92 44 29.84 44 38 44 C38 47.96 38 51.92 38 56 C25.46 56 12.92 56 0 56 C0 37.52 0 19.04 0 0 Z " fill="#510F5F" transform="translate(747,414)"/>
<path d="M0 0 C12.54 0 25.08 0 38 0 C38 3.3 38 6.6 38 10 C30.08 10 22.16 10 14 10 C14 13.96 14 17.92 14 22 C20.93 22 27.86 22 35 22 C35 25.3 35 28.6 35 32 C28.07 32 21.14 32 14 32 C14 35.96 14 39.92 14 44 C22.25 44 30.5 44 39 44 C39 47.96 39 51.92 39 56 C26.13 56 13.26 56 0 56 C0 37.52 0 19.04 0 0 Z " fill="#414850" transform="translate(461,414)"/>
<path d="M0 0 C4.95 0 9.9 0 15 0 C15.43570312 1.31871094 15.87140625 2.63742187 16.3203125 3.99609375 C20.09092761 15.37605066 23.96131532 26.71239411 28 38 C30.4731424 35.5268576 30.95603591 33.5423434 32.0234375 30.21484375 C32.405 29.04373047 32.7865625 27.87261719 33.1796875 26.66601562 C33.77136719 24.82040039 33.77136719 24.82040039 34.375 22.9375 C36.89770832 15.08767261 39.48100736 7.46379945 43 0 C47.62 0 52.24 0 57 0 C56.35107604 3.24461979 55.79661172 5.83677409 54.68066406 8.84960938 C54.28454926 9.92728577 54.28454926 9.92728577 53.88043213 11.0267334 C53.59504578 11.79134888 53.30965942 12.55596436 53.015625 13.34375 C52.71815369 14.14929321 52.42068237 14.95483643 52.11419678 15.78479004 C51.16293054 18.35782512 50.20644644 20.92888666 49.25 23.5 C48.62207406 25.19779769 47.99446685 26.89571331 47.3671875 28.59375 C43.9775756 37.7554401 40.53023788 46.89144731 37 56 C31.39 56 25.78 56 20 56 C10.25295211 30.97538609 10.25295211 30.97538609 6.0625 19 C5.79300537 18.23204102 5.52351074 17.46408203 5.24584961 16.67285156 C3.33888354 11.15969043 1.65002289 5.59530149 0 0 Z " fill="#3E454D" transform="translate(374,414)"/>
<path d="M0 0 C0.91644287 0.00523682 1.83288574 0.01047363 2.77709961 0.01586914 C3.76645508 0.0190918 4.75581055 0.02231445 5.77514648 0.02563477 C6.81606445 0.03401367 7.85698242 0.04239258 8.92944336 0.05102539 C10.49662109 0.05779297 10.49662109 0.05779297 12.09545898 0.06469727 C14.68600996 0.07652627 17.27644895 0.0930085 19.86694336 0.11352539 C18.62332035 3.48619285 17.22689254 6.2734341 15.11694336 9.17993164 C14.59100586 9.91276367 14.06506836 10.6455957 13.52319336 11.40063477 C12.97663086 12.15151367 12.43006836 12.90239258 11.86694336 13.67602539 C10.78107593 15.17549563 9.69765248 16.67673942 8.61694336 18.17993164 C8.13741211 18.83936768 7.65788086 19.49880371 7.16381836 20.17822266 C5.87938623 22.09495712 4.85099951 24.02907862 3.86694336 26.11352539 C17.01331397 27.60404133 17.01331397 27.60404133 29.00366211 23.54418945 C32.41308342 19.7791497 34.84538528 15.49132987 36.99511719 10.90698242 C37.86694336 9.11352539 37.86694336 9.11352539 39.86694336 6.11352539 C46.21033987 7.91963134 51.43632591 10.36980273 56.86694336 14.11352539 C55.41650065 18.22311306 53.35583584 21.54611284 50.86694336 25.11352539 C54.49694336 25.11352539 58.12694336 25.11352539 61.86694336 25.11352539 C61.86694336 27.11352539 61.86694336 27.11352539 60.18725586 28.80493164 C59.10057617 29.73112305 59.10057617 29.73112305 57.99194336 30.67602539 C56.91299805 31.60608398 56.91299805 31.60608398 55.81225586 32.55493164 C53.86694336 34.11352539 53.86694336 34.11352539 51.86694336 35.11352539 C53.16937666 32.20809727 54.57580604 30.30422929 56.86694336 28.11352539 C36.97443753 28.05294284 17.08249779 28.04424891 -2.81002712 28.09855652 C-7.36156461 28.11064683 -11.91304232 28.11491187 -16.46459961 28.11499023 C-21.65656403 28.11792196 -26.84734506 28.15074156 -32.03894043 28.21218872 C-33.88074966 28.22962719 -35.72268666 28.23682981 -37.5645752 28.23336792 C-48.27233239 27.78727234 -48.27233239 27.78727234 -57.66040039 32.03540039 C-58.47637695 33.05118164 -59.29235352 34.06696289 -60.13305664 35.11352539 C-60.75180664 35.81477539 -61.37055664 36.51602539 -62.00805664 37.23852539 C-63.230732 39.05009912 -63.230732 39.05009912 -63.57055664 41.11352539 C-64.34654853 43.87260765 -66.13001148 45.11048023 -68.13305664 47.11352539 C-68.92032444 49.25172199 -68.92032444 49.25172199 -69.13305664 51.11352539 C-69.79305664 51.11352539 -70.45305664 51.11352539 -71.13305664 51.11352539 C-71.23618164 51.83540039 -71.33930664 52.55727539 -71.44555664 53.30102539 C-72.19292596 56.35844532 -73.41350853 58.49682174 -75.13305664 61.11352539 C-75.79305664 60.78352539 -76.45305664 60.45352539 -77.13305664 60.11352539 C-66.76389949 39.11181449 -54.91807761 23.04870912 -35.13305664 10.11352539 C-34.47305664 10.44352539 -33.81305664 10.77352539 -33.13305664 11.11352539 C-33.69895508 11.88438477 -34.26485352 12.65524414 -34.84790039 13.44946289 C-35.58137695 14.45235352 -36.31485352 15.45524414 -37.07055664 16.48852539 C-37.80145508 17.48625977 -38.53235352 18.48399414 -39.28540039 19.51196289 C-41.11101354 21.94169649 -41.11101354 21.94169649 -42.13305664 24.11352539 C-34.54305664 24.44352539 -26.95305664 24.77352539 -19.13305664 25.11352539 C-18.47305664 23.46352539 -17.81305664 21.81352539 -17.13305664 20.11352539 C-16.10942042 18.54291436 -15.03158781 17.0066779 -13.91040039 15.50415039 C-12.979375 14.24924805 -12.979375 14.24924805 -12.02954102 12.96899414 C-11.38307617 12.10918945 -10.73661133 11.24938477 -10.07055664 10.36352539 C-9.09505859 9.05061523 -9.09505859 9.05061523 -8.09985352 7.71118164 C-2.45256193 0.13053008 -2.45256193 0.13053008 0 0 Z " fill="#8259C7" transform="translate(496.133056640625,195.886474609375)"/>
<path d="M0 0 C0.74414923 0.00291284 1.48829846 0.00582568 2.25499767 0.00882679 C3.43234239 0.00754515 3.43234239 0.00754515 4.63347185 0.00623763 C7.28373924 0.00458044 9.93394441 0.01010807 12.58420604 0.01555592 C14.47595509 0.01583776 16.36770425 0.01568011 18.25945324 0.01511341 C23.41213175 0.01482534 28.5647872 0.02072366 33.71746033 0.02768737 C39.09600961 0.03391927 44.47455936 0.03452458 49.85311168 0.03571278 C60.0457989 0.03882658 70.23847544 0.04704062 80.43115795 0.05706227 C92.03192634 0.06822189 103.63269522 0.07373347 115.23346764 0.0787577 C139.10421123 0.0892232 162.97494535 0.10682358 186.84568065 0.12908131 C187.17568065 1.77908131 187.50568065 3.42908131 187.84568065 5.12908131 C170.02568065 5.12908131 152.20568065 5.12908131 133.84568065 5.12908131 C133.84568065 13.04908131 133.84568065 20.96908131 133.84568065 29.12908131 C131.86568065 29.62408131 131.86568065 29.62408131 129.84568065 30.12908131 C129.51568065 29.79908131 129.18568065 29.46908131 128.84568065 29.12908131 C128.84568065 21.20908131 128.84568065 13.28908131 128.84568065 5.12908131 C103.76568065 5.12908131 78.68568065 5.12908131 52.84568065 5.12908131 C52.84568065 13.04908131 52.84568065 20.96908131 52.84568065 29.12908131 C51.52568065 29.45908131 50.20568065 29.78908131 48.84568065 30.12908131 C48.51568065 29.79908131 48.18568065 29.46908131 47.84568065 29.12908131 C47.84568065 21.20908131 47.84568065 13.28908131 47.84568065 5.12908131 C30.35568065 5.12908131 12.86568065 5.12908131 -5.15431935 5.12908131 C-5.48431935 3.80908131 -5.81431935 2.48908131 -6.15431935 1.12908131 C-4.44364818 -0.58158985 -2.28144648 0.00677169 0 0 Z " fill="#FDF7FE" transform="translate(424.1543193459511,323.8709186911583)"/>
<path d="M0 0 C0.33 0 0.66 0 1 0 C1.0936371 14.31710098 1.16380742 28.63415415 1.20724869 42.95149899 C1.22810101 49.60003188 1.25637607 56.24830389 1.30175781 62.89672852 C1.3452986 69.3158069 1.36915486 75.73468736 1.37950897 82.15390205 C1.38688547 84.5998604 1.40129001 87.04580822 1.42292023 89.49168205 C1.45206259 92.92429681 1.45595133 96.3560993 1.45410156 99.78881836 C1.46848267 100.79439285 1.48286377 101.79996735 1.49768066 102.83601379 C1.45395419 110.36153177 0.08976792 116.91023208 -5.375 122.375 C-11.76999035 126.33380355 -16.1391426 127.43890379 -23.55123901 127.39440918 C-24.50627229 127.40050028 -25.46130556 127.40659139 -26.44527924 127.41286707 C-29.64186341 127.42950116 -32.83804943 127.42472058 -36.03466797 127.41992188 C-38.32796645 127.42726195 -40.62126123 127.435848 -42.91455078 127.44558716 C-49.14183944 127.46781828 -55.36899583 127.47073302 -61.59631872 127.46883965 C-66.79518438 127.46872002 -71.99402195 127.47728102 -77.1928798 127.48561716 C-90.15952762 127.50595716 -103.12608945 127.50699923 -116.09274639 127.49981004 C-127.34527663 127.49423539 -138.59757913 127.51505827 -149.85005616 127.54817051 C-161.41259959 127.58193027 -172.9750061 127.59659868 -184.53760254 127.59245348 C-191.02572603 127.59038514 -197.51362272 127.59587876 -204.00170517 127.62034607 C-210.10361448 127.64259664 -216.20504964 127.64074883 -222.30696106 127.62041855 C-224.54506421 127.61700557 -226.78319918 127.62210989 -229.02125931 127.63640213 C-232.07965705 127.65458372 -235.13644441 127.64185257 -238.1947937 127.62145996 C-239.51942338 127.64023673 -239.51942338 127.64023673 -240.87081325 127.65939283 C-247.14071927 127.56992766 -251.03225787 125.78921643 -256 122 C-253 122 -253 122 -251.07061851 122.98426986 C-248.79034773 124.10284373 -247.39062418 124.25052315 -244.87010384 124.25168228 C-244.05072527 124.25689778 -243.2313467 124.26211327 -242.38713849 124.26748681 C-241.49240067 124.26302537 -240.59766285 124.25856392 -239.67581177 124.25396729 C-238.72107621 124.25708727 -237.76634065 124.26020725 -236.78267372 124.26342177 C-233.57526833 124.2714154 -230.36805142 124.26507271 -227.16064453 124.25878906 C-224.8643991 124.26149835 -222.56815453 124.26505893 -220.27191162 124.26940918 C-214.0281215 124.27854384 -207.78439732 124.2749842 -201.54060602 124.26865101 C-195.01175919 124.26359538 -188.48291809 124.26828136 -181.95407104 124.27142334 C-170.28378646 124.27529819 -158.61353202 124.26907273 -146.94325219 124.25890467 C-136.36498526 124.24997325 -125.78676223 124.25151753 -115.20849609 124.26074219 C-102.92417645 124.27144958 -90.63988481 124.2754266 -78.35556114 124.26951766 C-71.85301845 124.26639805 -65.35050599 124.2659883 -58.84796524 124.27259064 C-52.73308297 124.27836529 -46.61828364 124.27436489 -40.50341034 124.26280212 C-38.25802371 124.26015597 -36.01263011 124.26091987 -33.76724625 124.26532745 C-30.70412154 124.2707861 -27.64126322 124.26394461 -24.57815552 124.25396729 C-23.24274096 124.26065945 -23.24274096 124.26065945 -21.88034832 124.26748681 C-17.22370907 124.23803392 -13.32705725 123.94785659 -9 122 C-8.67 121.34 -8.34 120.68 -8 120 C-7.34 120 -6.68 120 -6 120 C-2.54322838 113.58028128 -1.71152438 108.03804553 -1.77294922 100.87353516 C-1.77265717 99.97533051 -1.77236511 99.07712585 -1.77206421 98.15170288 C-1.77345207 95.19738947 -1.78898768 92.24333159 -1.8046875 89.2890625 C-1.80841956 87.23497658 -1.81126562 85.18088888 -1.81326294 83.12680054 C-1.82088417 77.73125254 -1.84051973 72.33581292 -1.8626709 66.94030762 C-1.88316184 61.43027207 -1.8922716 55.92021895 -1.90234375 50.41015625 C-1.92376702 39.60672333 -1.95788476 28.80337069 -2 18 C-3.12674129 21.52027845 -4.25107707 25.04132081 -5.375 28.5625 C-5.69210937 29.55314453 -6.00921875 30.54378906 -6.3359375 31.56445312 C-7.97062228 36.68987101 -9.56047303 41.81624883 -11 47 C-11.66 47 -12.32 47 -13 47 C-12.2815532 41.70573135 -10.81943852 36.77555796 -9.25 31.6875 C-8.7092415 29.91027606 -8.16888427 28.13292998 -7.62890625 26.35546875 C-7.3570752 25.4639209 -7.08524414 24.57237305 -6.80517578 23.65380859 C-5.57790665 19.60880695 -4.37992067 15.55538885 -3.1875 11.5 C-2.98092773 10.80092529 -2.77435547 10.10185059 -2.56152344 9.3815918 C-1.64567132 6.26807939 -0.74927831 3.15824835 0 0 Z " fill="#815DBF" transform="translate(646,248)"/>
<path d="M0 0 C4.53906574 2.56881193 7.2966474 4.93966153 8.8203125 10.08203125 C9.47256683 16.32503699 9.56458399 21.78840604 5.8203125 27.08203125 C1.39593194 31.17458327 -2.04255928 32.45250744 -8.12109375 32.36328125 C-12.73027562 31.7335638 -15.53765182 28.8108285 -18.4921875 25.45703125 C-21.98003158 20.54821366 -21.74920356 15.97245452 -21.1796875 10.08203125 C-19.91681633 5.91303486 -17.55287247 3.03235109 -13.9296875 0.64453125 C-9.21535852 -1.66739981 -4.82829438 -2.03342147 0 0 Z " fill="#F1F2F4" transform="translate(347.1796875,425.91796875)"/>
<path d="M0 0 C4.62 0 9.24 0 14 0 C14 18.48 14 36.96 14 56 C9.38 56 4.76 56 0 56 C0 37.52 0 19.04 0 0 Z " fill="#3F464E" transform="translate(437,414)"/>
<path d="M0 0 C-1.65452502 5.16910612 -4.79730207 9.21252309 -7.9375 13.5625 C-8.47568359 14.31724609 -9.01386719 15.07199219 -9.56835938 15.84960938 C-11.03757355 17.90578457 -12.51160157 19.95767105 -14 22 C-14.66588135 23.0996106 -14.66588135 23.0996106 -15.34521484 24.22143555 C-17 26 -17 26 -19.4519043 26.45410156 C-20.39976807 26.4331543 -21.34763184 26.41220703 -22.32421875 26.390625 C-23.35224609 26.37773437 -24.38027344 26.36484375 -25.43945312 26.3515625 C-26.51130859 26.31804687 -27.58316406 26.28453125 -28.6875 26.25 C-29.77095703 26.23195312 -30.85441406 26.21390625 -31.97070312 26.1953125 C-34.64802146 26.14813508 -37.32356909 26.08232249 -40 26 C-38.3529611 22.98881905 -36.67961794 19.99311435 -35 17 C-34.5786377 16.22897949 -34.15727539 15.45795898 -33.72314453 14.66357422 C-25.1498568 -0.46133834 -16.85623773 -2.50789588 0 0 Z " fill="#3E4451" transform="translate(516,196)"/>
<path d="M0 0 C0.495 0.99 0.495 0.99 1 2 C-0.00390625 4.13671875 -0.00390625 4.13671875 -1.5625 6.6875 C-2.05878906 7.51636719 -2.55507813 8.34523438 -3.06640625 9.19921875 C-4.65959035 11.50692178 -6.29054614 13.56134553 -8.12084961 15.67504883 C-8.66027695 16.29946365 -9.19970428 16.92387848 -9.75547791 17.56721497 C-10.37151634 18.27644356 -10.37151634 18.27644356 -11 19 C5.69482002 20.02487785 22.39382986 20.29880781 39.11413574 20.53222656 C42.72196254 20.58336339 46.32972735 20.63855739 49.9375 20.69335938 C56.95827921 20.79943219 63.9791146 20.9011816 71 21 C71.33 21.66 71.66 22.32 72 23 C8.31 23 -55.38 23 -121 23 C-120.67 22.34 -120.34 21.68 -120 21 C-91.95 20.67 -63.9 20.34 -35 20 C-37.31 18.68 -39.62 17.36 -42 16 C-41.67 15.34 -41.34 14.68 -41 14 C-40.175 14.66 -39.35 15.32 -38.5 16 C-32.04555836 19.69579481 -22.43010563 19.12247054 -15.39453125 17.33984375 C-7.89375001 13.98843086 -3.710693 6.99322912 0 0 Z " fill="#6F47AE" transform="translate(540,301)"/>
<path d="M0 0 C0 7.92 0 15.84 0 24 C-12.625 28 -12.625 28 -16 28 C-17.98 23.71 -19.96 19.42 -22 15 C-20.43839787 12.4627741 -18.83466448 9.98080403 -17.1875 7.5 C-16.75501953 6.78457031 -16.32253906 6.06914062 -15.87695312 5.33203125 C-11.05500431 -1.74915232 -9.84462747 0 0 0 Z " fill="#404850" transform="translate(647,195)"/>
<path d="M0 0 C6.34339651 1.80610595 11.56938255 4.25627734 17 8 C15.60371142 12.31580106 13.7615857 16.32962049 10 19 C6.20536815 19.74339827 2.53561041 19.56703622 -1.3125 19.375 C-2.85260742 19.33439453 -2.85260742 19.33439453 -4.42382812 19.29296875 C-6.95137576 19.22243254 -9.47460043 19.12393429 -12 19 C-10.42686828 14.27156386 -7.79358765 10.6566157 -4.875 6.6875 C-4.17310547 5.71973633 -4.17310547 5.71973633 -3.45703125 4.73242188 C-2.3094071 3.15151106 -1.15534523 1.57527699 0 0 Z " fill="#3E444F" transform="translate(536,202)"/>
<path d="M0 0 C0.33 0 0.66 0 1 0 C1.0936371 14.31710098 1.16380742 28.63415415 1.20724869 42.95149899 C1.22810101 49.60003188 1.25637607 56.24830389 1.30175781 62.89672852 C1.3452986 69.3158069 1.36915486 75.73468736 1.37950897 82.15390205 C1.38688547 84.5998604 1.40129001 87.04580822 1.42292023 89.49168205 C1.45206259 92.92429681 1.45595133 96.3560993 1.45410156 99.78881836 C1.47567322 101.2971801 1.47567322 101.2971801 1.49768066 102.83601379 C1.46019399 109.2876347 0.38110901 114.43350177 -3 120 C-5.25 122.0625 -5.25 122.0625 -7 123 C-7.33 122.01 -7.66 121.02 -8 120 C-7.34 120 -6.68 120 -6 120 C-2.54322838 113.58028128 -1.71152438 108.03804553 -1.77294922 100.87353516 C-1.77251114 99.52622818 -1.77251114 99.52622818 -1.77206421 98.15170288 C-1.77345207 95.19738947 -1.78898768 92.24333159 -1.8046875 89.2890625 C-1.80841956 87.23497658 -1.81126562 85.18088888 -1.81326294 83.12680054 C-1.82088417 77.73125254 -1.84051973 72.33581292 -1.8626709 66.94030762 C-1.88316184 61.43027207 -1.8922716 55.92021895 -1.90234375 50.41015625 C-1.92376702 39.60672333 -1.95788476 28.80337069 -2 18 C-3.12674129 21.52027845 -4.25107707 25.04132081 -5.375 28.5625 C-5.69210937 29.55314453 -6.00921875 30.54378906 -6.3359375 31.56445312 C-7.97062228 36.68987101 -9.56047303 41.81624883 -11 47 C-11.66 47 -12.32 47 -13 47 C-12.2815532 41.70573135 -10.81943852 36.77555796 -9.25 31.6875 C-8.7092415 29.91027606 -8.16888427 28.13292998 -7.62890625 26.35546875 C-7.3570752 25.4639209 -7.08524414 24.57237305 -6.80517578 23.65380859 C-5.57790665 19.60880695 -4.37992067 15.55538885 -3.1875 11.5 C-2.98092773 10.80092529 -2.77435547 10.10185059 -2.56152344 9.3815918 C-1.64567132 6.26807939 -0.74927831 3.15824835 0 0 Z " fill="#7C58BC" transform="translate(646,248)"/>
<path d="M0 0 C0 0.99 0 1.98 0 3 C-1.66015625 4.515625 -1.66015625 4.515625 -4.0625 6.25 C-18.41131878 17.36270221 -31.6183974 31.22363046 -39 48 C-38.01 48 -37.02 48 -36 48 C-35.79375 47.319375 -35.5875 46.63875 -35.375 45.9375 C-32.50472291 39.8055444 -27.47566582 34.89380681 -22 31 C-21.01 31.33 -20.02 31.66 -19 32 C-19.83402344 32.78761719 -20.66804688 33.57523438 -21.52734375 34.38671875 C-33.76456888 46.14240752 -41.79811355 58.713162 -49 74 C-50.33312046 70.00063863 -49.22073065 67.14995277 -48.0625 63.25 C-47.84013672 62.4971875 -47.61777344 61.744375 -47.38867188 60.96875 C-44.91400164 53.06042045 -41.11557765 46.15124133 -37 39 C-36.60296875 38.19433594 -36.2059375 37.38867188 -35.796875 36.55859375 C-28.45493247 21.68294153 -13.94069599 8.46768201 0 0 Z " fill="#3F106F" transform="translate(463,177)"/>
<path d="M0 0 C0.99 0.495 0.99 0.495 2 1 C2 1.99 2 2.98 2 4 C19.49 4.33 36.98 4.66 55 5 C55.495 16.88 55.495 16.88 56 29 C56.99 29 57.98 29 59 29 C59.33 21.08 59.66 13.16 60 5 C85.08 5 110.16 5 136 5 C136 5.33 136 5.66 136 6 C111.25 6 86.5 6 61 6 C61 13.92 61 21.84 61 30 C60 31 60 31 57.5625 31.1875 C55 31 55 31 53 29 C52.77294922 26.75341797 52.77294922 26.75341797 52.8046875 23.9921875 C52.81113281 23.00605469 52.81757813 22.01992188 52.82421875 21.00390625 C52.84097656 19.97136719 52.85773438 18.93882812 52.875 17.875 C52.88402344 16.83472656 52.89304687 15.79445313 52.90234375 14.72265625 C52.92596253 12.14820908 52.95889851 9.57421788 53 7 C52.36550934 7.00444122 51.73101868 7.00888245 51.07730103 7.01345825 C44.49166102 7.0576008 37.90606283 7.08782852 31.3203125 7.10986328 C28.86033421 7.11993983 26.40036794 7.13360131 23.94042969 7.15087891 C20.41077715 7.17505461 16.88128253 7.1864664 13.3515625 7.1953125 C12.24632233 7.20563507 11.14108215 7.21595764 10.00234985 7.22659302 C8.98144257 7.22674408 7.96053528 7.22689514 6.90869141 7.22705078 C6.00712311 7.231492 5.10555481 7.23593323 4.17666626 7.24050903 C2 7 2 7 0 5 C-0.125 2.375 -0.125 2.375 0 0 Z " fill="#8A68BE" transform="translate(417,324)"/>
<path d="M0 0 C12.21 0 24.42 0 37 0 C37 0.33 37 0.66 37 1 C25.45 1 13.9 1 2 1 C2 18.49 2 35.98 2 54 C13.88 54 25.76 54 38 54 C38 54.66 38 55.32 38 56 C25.46 56 12.92 56 0 56 C0 37.52 0 19.04 0 0 Z " fill="#592D62" transform="translate(747,414)"/>
<path d="M0 0 C0.66 0 1.32 0 2 0 C3.00816056 2.58041096 4.0067111 5.16386944 5 7.75 C5.28617188 8.47960937 5.57234375 9.20921875 5.8671875 9.9609375 C6.13789062 10.66992188 6.40859375 11.37890625 6.6875 12.109375 C6.93886719 12.75874023 7.19023438 13.40810547 7.44921875 14.07714844 C8 16 8 16 8 20 C3.38 20 -1.24 20 -6 20 C-4.63125844 13.04223041 -2.5466871 6.61396893 0 0 Z " fill="#ECE0ED" transform="translate(593,429)"/>
<path d="M0 0 C0.495 0.99 0.495 0.99 1 2 C1.84658928 1.95908485 1.84658928 1.95908485 2.71028137 1.91734314 C8.63189256 1.63265566 14.55393199 1.35864254 20.47631836 1.09057617 C22.68087043 0.98942329 24.88530312 0.88563013 27.08959961 0.77905273 C30.27429236 0.62554752 33.45930628 0.48182377 36.64453125 0.33984375 C37.61582474 0.29093491 38.58711823 0.24202606 39.58784485 0.19163513 C46.14376491 -0.08811343 52.48227329 0.25082291 59 1 C59 3 59 3 57.3203125 4.69140625 C56.59585938 5.30886719 55.87140625 5.92632812 55.125 6.5625 C54.40570312 7.18253906 53.68640625 7.80257812 52.9453125 8.44140625 C51 10 51 10 49 11 C50.38589981 7.90837736 51.49183541 6.50816459 54 4 C21 3.67 -12 3.34 -46 3 C-46 2.67 -46 2.34 -46 2 C-30.82 2 -15.64 2 0 2 C0 1.34 0 0.68 0 0 Z " fill="#643DAA" transform="translate(499,220)"/>
<path d="M0 0 C9.9 0 19.8 0 30 0 C30 4.95 30 9.9 30 15 C29.01 15.99 28.02 16.98 27 18 C27.33 12.72 27.66 7.44 28 2 C19.42 2 10.84 2 2 2 C2 4.31 2 6.62 2 9 C6.95 9 11.9 9 17 9 C17 9.33 17 9.66 17 10 C11.39 10 5.78 10 0 10 C0 6.7 0 3.4 0 0 Z " fill="#5A2E65" transform="translate(710,438)"/>
<path d="M0 0 C9.57 0 19.14 0 29 0 C29 5.28 29 10.56 29 16 C28.34 16.33 27.68 16.66 27 17 C27 12.05 27 7.1 27 2 C18.42 2 9.84 2 1 2 C1 4.31 1 6.62 1 9 C5.95 9 10.9 9 16 9 C16 9.33 16 9.66 16 10 C10.72 10 5.44 10 0 10 C0 6.7 0 3.4 0 0 Z " fill="#4D1E59" transform="translate(533,438)"/>
<path d="M0 0 C0.66 0.33 1.32 0.66 2 1 C1.43410156 1.77085937 0.86820312 2.54171875 0.28515625 3.3359375 C-0.44832031 4.33882812 -1.18179687 5.34171875 -1.9375 6.375 C-2.66839844 7.37273437 -3.39929688 8.37046875 -4.15234375 9.3984375 C-5.9779569 11.82817109 -5.9779569 11.82817109 -7 14 C-7.66 14 -8.32 14 -9 14 C-9 14.66 -9 15.32 -9 16 C-12.3 16 -15.6 16 -19 16 C-13.78433997 8.99611367 -7.21705555 4.72213872 0 0 Z " fill="#41464F" transform="translate(461,206)"/>
<path d="M0 0 C9.57 0 19.14 0 29 0 C25 11.4375 25 11.4375 23.734375 14.98608398 C21.59715834 21.2498462 20.36427738 26.37788937 21 33 C22.81590979 36.02690443 22.81590979 36.02690443 25 38 C23.125 37.6875 23.125 37.6875 21 37 C17.40384046 31.6057607 18.3085717 23.77901331 19.453125 17.5234375 C20 15.625 20 15.625 21 13 C21.66 13 22.32 13 23 13 C23.33 9.37 23.66 5.74 24 2 C16.08 1.67 8.16 1.34 0 1 C0 0.67 0 0.34 0 0 Z " fill="#7448B9" transform="translate(385,222)"/>
<path d="M0 0 C-2.18557694 1.78084047 -3.95187838 2.98281371 -6.625 3.9375 C-9.15211014 4.80105398 -9.15211014 4.80105398 -10.3125 7.125 C-10.539375 7.74375 -10.76625 8.3625 -11 9 C-10.443125 9.268125 -9.88625 9.53625 -9.3125 9.8125 C-6.78774666 11.10899496 -4.36285516 12.42476323 -2 14 C-2 14.66 -2 15.32 -2 16 C-1.1646875 16.0928125 -1.1646875 16.0928125 -0.3125 16.1875 C2.97272942 17.34176979 4.607803 19.49388886 7 22 C8.96484852 23.7140168 10.97732437 25.35363611 13 27 C8.79949944 27 6.73251272 24.67563357 3.625 22.125 C2.37573567 21.11757663 1.12571658 20.11108859 -0.125 19.10546875 C-1.08212891 18.33275635 -1.08212891 18.33275635 -2.05859375 17.54443359 C-3.95473345 16.03601059 -5.87492021 14.56797042 -7.8125 13.11328125 C-8.41143066 12.66259277 -9.01036133 12.2119043 -9.62744141 11.74755859 C-10.77748727 10.88542586 -11.93073852 10.02754975 -13.08740234 9.17431641 C-14.42787986 8.16256406 -15.71963332 7.08682288 -17 6 C-17 5.34 -17 4.68 -17 4 C-15.10751181 3.32389577 -13.2108398 2.65949561 -11.3125 2 C-10.25675781 1.62875 -9.20101562 1.2575 -8.11328125 0.875 C-5.21637944 0.0608143 -2.98299377 -0.17709796 0 0 Z " fill="#83297C" transform="translate(592,245)"/>
<path d="M0 0 C0 3.74887518 -1.08964472 4.91935659 -3.25 7.9375 C-3.85328125 8.79214844 -4.4565625 9.64679688 -5.078125 10.52734375 C-6.90964099 12.88374542 -8.84241676 14.94265846 -11 17 C-11.33 16.34 -11.66 15.68 -12 15 C-12.75925781 15.85464844 -13.51851562 16.70929688 -14.30078125 17.58984375 C-15.30438502 18.70600122 -16.30830796 19.82187176 -17.3125 20.9375 C-17.81201172 21.50146484 -18.31152344 22.06542969 -18.82617188 22.64648438 C-22.66015625 26.88671875 -22.66015625 26.88671875 -26 28 C-26 25 -26 25 -23.4375 22.109375 C-22.29992169 20.98119816 -21.15354266 19.86184834 -20 18.75 C-19.40638672 18.16734375 -18.81277344 17.5846875 -18.20117188 16.984375 C-14.46128001 13.33808217 -10.63758922 9.81604508 -6.65625 6.43359375 C-4.31135747 4.40393442 -2.15819683 2.22564049 0 0 Z " fill="#B35189" transform="translate(610,182)"/>
<path d="M0 0 C-1.38629244 3.12324544 -2.99511571 5.24190707 -5.4140625 7.64453125 C-6.09339844 8.32193359 -6.77273438 8.99933594 -7.47265625 9.69726562 C-8.18292969 10.39529297 -8.89320313 11.09332031 -9.625 11.8125 C-10.31207031 12.49892578 -10.99914062 13.18535156 -11.70703125 13.89257812 C-15.74375374 17.89521947 -19.8832606 21.72492597 -24.20263672 25.42089844 C-26.93515493 27.82159496 -29.46062784 30.39714354 -32 33 C-32.99 32.67 -33.98 32.34 -35 32 C-22.2547465 19.07988784 -22.2547465 19.07988784 -16.11328125 13.8984375 C-12.59251025 10.7356007 -9.31563883 7.31959109 -6.03491211 3.90991211 C-2.21478271 0 -2.21478271 0 0 0 Z " fill="#9A327E" transform="translate(584,209)"/>
<path d="M0 0 C0.33 0.66 0.66 1.32 1 2 C-3.93891455 9.4720541 -8.95628886 16.88406542 -14.05175781 24.25 C-17.08538979 28.64162465 -20.03746948 33.07443217 -22.87890625 37.59375 C-23.24886719 38.0578125 -23.61882813 38.521875 -24 39 C-24.66 39 -25.32 39 -26 39 C-24.41802221 34.37779673 -21.92760992 30.67981608 -19.1875 26.6875 C-18.28408848 25.35749549 -17.38173431 24.02677213 -16.48046875 22.6953125 C-16.05040527 22.06012695 -15.6203418 21.42494141 -15.17724609 20.77050781 C-13.71680737 18.5740952 -12.35152915 16.32722453 -11 14.0625 C-10.34 13.051875 -9.68 12.04125 -9 11 C-8.34 11 -7.68 11 -7 11 C-6.71125 10.236875 -6.4225 9.47375 -6.125 8.6875 C-5 6 -5 6 -3 3 C-2.34 3 -1.68 3 -1 3 C-0.67 2.01 -0.34 1.02 0 0 Z " fill="#9D387E" transform="translate(598,199)"/>
<path d="M0 0 C0 0.99 0 1.98 0 3 C-1.66015625 4.515625 -1.66015625 4.515625 -4.0625 6.25 C-9.84723435 10.66096339 -14.81251439 15.71706715 -19.82055664 20.98339844 C-20.43406982 21.61665039 -21.04758301 22.24990234 -21.6796875 22.90234375 C-22.22351074 23.47460693 -22.76733398 24.04687012 -23.32763672 24.63647461 C-25.2053305 26.1674118 -26.63375773 26.59552791 -29 27 C-21.08421347 15.60747586 -11.34222631 7.72820256 0 0 Z " fill="#4C0B73" transform="translate(463,177)"/>
<path d="M0 0 C5.07338815 2.79805043 9.51231705 6.37888235 14.0625 9.9375 C14.86494141 10.55818359 15.66738281 11.17886719 16.49414062 11.81835938 C17.65913086 12.72618164 17.65913086 12.72618164 18.84765625 13.65234375 C19.54898682 14.19882568 20.25031738 14.74530762 20.97290039 15.30834961 C23.11274228 17.09408542 25.05836623 19.00226067 27 21 C21.25 19.125 21.25 19.125 19 18 C19 17.34 19 16.68 19 16 C18.34 16 17.68 16 17 16 C16 15 15 14 14 13 C13.38125 12.71125 12.7625 12.4225 12.125 12.125 C9.21827895 10.58614768 7.28297419 8.34305245 5 6 C4.34 5.67 3.68 5.34 3 5 C3 4.34 3 3.68 3 3 C-1.10926642 5.13625077 -3.26481817 7.34099999 -5.8125 11.1875 C-6.41707031 12.08855469 -7.02164063 12.98960937 -7.64453125 13.91796875 C-8.09183594 14.60503906 -8.53914062 15.29210937 -9 16 C-9 11.93725548 -7.34403285 10.20307076 -5.0625 6.875 C-4.33160156 5.79992187 -3.60070312 4.72484375 -2.84765625 3.6171875 C-1 1 -1 1 0 0 Z " fill="#744CAF" transform="translate(570,257)"/>
<path d="M0 0 C1.2375 0.1546875 1.2375 0.1546875 2.5 0.3125 C4.5 3.3125 4.5 3.3125 4.1875 5.9375 C3.5 8.3125 3.5 8.3125 2.5 9.3125 C0.0625 9.5 0.0625 9.5 -2.5 9.3125 C-4.5 7.3125 -4.5 7.3125 -4.75 4.8125 C-4.40047575 1.3172575 -3.47557682 0.4344471 0 0 Z " fill="#E9EBEC" transform="translate(395.5,203.6875)"/>
<path d="M0 0 C3.125 0.375 3.125 0.375 6 1 C6.625 3.3125 6.625 3.3125 7 6 C6.01 7.485 6.01 7.485 5 9 C2.5 9.3125 2.5 9.3125 0 9 C-2 7 -2 7 -2.25 4.5 C-2 2 -2 2 0 0 Z " fill="#E7E9EA" transform="translate(393,174)"/>
<path d="M0 0 C-3.35057671 2.74364842 -6.91528661 4.5087288 -10.8125 6.375 C-14.80428582 8.31030192 -18.63193076 10.25937811 -22.1875 12.9375 C-25 15 -25 15 -28 15 C-28 14.34 -28 13.68 -28 13 C-25.69343583 11.44427052 -23.40268575 10.0177423 -21 8.625 C-20.31244629 8.221604 -19.62489258 7.81820801 -18.91650391 7.40258789 C-16.95064138 6.25695814 -14.97769374 5.12505749 -13 4 C-12.14148438 3.51144531 -11.28296875 3.02289063 -10.3984375 2.51953125 C-6.83402696 0.61346616 -4.07114574 -0.50889322 0 0 Z " fill="#4A0F74" transform="translate(472,192)"/>
<path d="M0 0 C0.66 0 1.32 0 2 0 C2 0.99 2 1.98 2 3 C2.66 3 3.32 3 4 3 C4.35191406 3.93585938 4.35191406 3.93585938 4.7109375 4.890625 C6.77980015 8.27603662 9.63519458 8.48384593 13.3125 9.47265625 C16.98096384 10.19248564 20.27279748 10.20706681 24 10 C21.42909345 12.57090655 19.91488828 13.01134823 16.25 13.5 C10.02919824 13.25627456 5.65440601 9.73712631 1.5 5.375 C0 3 0 3 0 0 Z " fill="#42136F" transform="translate(498,300)"/>
<path d="M0 0 C-1.45546502 3.39608504 -3.40860299 5.40860299 -6 8 C-8.49256582 11.6732549 -8.56794473 15.67944733 -9 20 C-9.66 20 -10.32 20 -11 20 C-11.35480978 15.01295144 -11.58540154 11.17080309 -9.3125 6.625 C-3.47619048 0 -3.47619048 0 0 0 Z " fill="#450A6F" transform="translate(508,279)"/>
<path d="M0 0 C0.66 0.33 1.32 0.66 2 1 C1.57589844 1.4125 1.15179687 1.825 0.71484375 2.25 C-2.52083303 5.43589714 -5.61741014 8.66714895 -8.5625 12.125 C-11.46267816 15.49760537 -14.49647421 18.26554084 -18 21 C-18.33 20.01 -18.66 19.02 -19 18 C-18.53102295 17.56131592 -18.0620459 17.12263184 -17.57885742 16.6706543 C-15.4479108 14.6767969 -13.31769829 12.68215687 -11.1875 10.6875 C-10.44951172 9.99720703 -9.71152344 9.30691406 -8.95117188 8.59570312 C-8.23896484 7.92861328 -7.52675781 7.26152344 -6.79296875 6.57421875 C-6.1383667 5.96151123 -5.48376465 5.34880371 -4.80932617 4.7175293 C-3.17905198 3.16996771 -1.58078486 1.59789755 0 0 Z " fill="#5C1D74" transform="translate(532,257)"/>
<path d="M0 0 C0 3.59760476 -0.89512296 4.2215623 -3 7 C-3.144375 7.66 -3.28875 8.32 -3.4375 9 C-4.21349189 11.75908226 -5.99695484 12.99695484 -8 15 C-8.7872678 17.1381966 -8.7872678 17.1381966 -9 19 C-9.66 19 -10.32 19 -11 19 C-11.103125 19.721875 -11.20625 20.44375 -11.3125 21.1875 C-12.05986932 24.24491993 -13.28045189 26.38329635 -15 29 C-15.66 28.67 -16.32 28.34 -17 28 C-6.50588638 7.17370915 -6.50588638 7.17370915 0 0 Z " fill="#764CB4" transform="translate(436,228)"/>
<path d="M0 0 C2 3 2 3 1.6003418 5.60375977 C1.30297119 6.62268311 1.00560059 7.64160645 0.69921875 8.69140625 C0.38146484 9.80064453 0.06371094 10.90988281 -0.26367188 12.05273438 C-0.60978516 13.21095703 -0.95589844 14.36917969 -1.3125 15.5625 C-1.64701172 16.72458984 -1.98152344 17.88667969 -2.32617188 19.08398438 C-4.79581311 27.59162621 -4.79581311 27.59162621 -6 30 C-6.66 30 -7.32 30 -8 30 C-7.26472182 24.43026781 -5.6509352 19.22496454 -4 13.875 C-3.45754982 12.101802 -2.91585471 10.3283728 -2.375 8.5546875 C-2.13523437 7.77593262 -1.89546875 6.99717773 -1.6484375 6.19482422 C-1.04154738 4.14062913 -0.50254732 2.08189711 0 0 Z " fill="#7952B2" transform="translate(641,265)"/>
<path d="M0 0 C0.33 0.66 0.66 1.32 1 2 C0.3503125 2.7734375 0.3503125 2.7734375 -0.3125 3.5625 C-1.7566582 5.64850629 -2.62580643 7.36488227 -3.5625 9.6875 C-5 13 -5 13 -7 14 C-7.45375 14.969375 -7.9075 15.93875 -8.375 16.9375 C-10.03813522 20.07187022 -10.74023094 20.8759417 -14 22 C-12.33383155 16.73786039 -9.06931631 12.60840413 -5.875 8.1875 C-5.31167969 7.39923828 -4.74835937 6.61097656 -4.16796875 5.79882812 C-2.78322342 3.86253169 -1.39381373 1.92977359 0 0 Z " fill="#7145B4" transform="translate(555,279)"/>
<path d="M0 0 C3.99881788 0.61520275 6.80358226 2.60268669 10 5 C10 5.66 10 6.32 10 7 C10.556875 7.061875 11.11375 7.12375 11.6875 7.1875 C14.97272942 8.34176979 16.607803 10.49388886 19 13 C20.96484852 14.7140168 22.97732437 16.35363611 25 18 C20.70224912 18 18.49411407 15.48394033 15.3125 12.875 C14.05658628 11.86384176 12.80007878 10.85342056 11.54296875 9.84375 C10.93630371 9.35390625 10.32963867 8.8640625 9.70458984 8.359375 C7.55140387 6.64225391 5.34659096 5.00230541 3.125 3.375 C2.09375 2.59125 1.0625 1.8075 0 1 C0 0.67 0 0.34 0 0 Z " fill="#883480" transform="translate(580,254)"/>
<path d="M0 0 C0 3 0 3 -1.28515625 4.62573242 C-2.16494141 5.4819519 -2.16494141 5.4819519 -3.0625 6.35546875 C-3.69414063 6.97744141 -4.32578125 7.59941406 -4.9765625 8.24023438 C-5.64429688 8.88283203 -6.31203125 9.52542969 -7 10.1875 C-8.00160156 11.16879883 -8.00160156 11.16879883 -9.0234375 12.16992188 C-10.67578441 13.78686135 -12.33471601 15.39640491 -14 17 C-14.99 16.67 -15.98 16.34 -17 16 C-14.91975578 13.89270058 -12.83597761 11.78911127 -10.75 9.6875 C-9.87021484 8.79514648 -9.87021484 8.79514648 -8.97265625 7.88476562 C-6.12147184 5.01756332 -3.34887496 2.29613457 0 0 Z " fill="#832A7A" transform="translate(566,225)"/>
<path d="M0 0 C1.65 0.99 3.3 1.98 5 3 C3.54253764 6.34314819 1.69015913 8.6078211 -0.875 11.1875 C-1.55304687 11.88230469 -2.23109375 12.57710937 -2.9296875 13.29296875 C-5.03086032 15.0254452 -6.34102145 15.60055703 -9 16 C-8.06409496 14.8944811 -7.12620142 13.79064547 -6.1875 12.6875 C-5.66542969 12.07261719 -5.14335938 11.45773438 -4.60546875 10.82421875 C-3 9 -3 9 -1.3125 7.46875 C0.33532237 5.93090924 0.33532237 5.93090924 0.1875 2.8125 C0.125625 1.884375 0.06375 0.95625 0 0 Z " fill="#9F4686" transform="translate(590,183)"/>
<path d="M0 0 C0.66 0.33 1.32 0.66 2 1 C0.68 2.32 -0.64 3.64 -2 5 C-1.01 5.33 -0.02 5.66 1 6 C1 6.99 1 7.98 1 9 C-2.3 9 -5.6 9 -9 9 C-3.375 2.25 -3.375 2.25 0 0 Z " fill="#3E3A5A" transform="translate(451,213)"/>
<path d="M0 0 C3.96 0.33 7.92 0.66 12 1 C12 3 12 3 10.3203125 4.69140625 C9.59585938 5.30886719 8.87140625 5.92632812 8.125 6.5625 C7.40570312 7.18253906 6.68640625 7.80257812 5.9453125 8.44140625 C4 10 4 10 2 11 C3.29299694 8.11562221 4.65941363 6.12780579 7 4 C4.69 3.67 2.38 3.34 0 3 C0 2.01 0 1.02 0 0 Z " fill="#805DAF" transform="translate(546,220)"/>
<path d="M0 0 C9.57 0 19.14 0 29 0 C28.34 1.65 27.68 3.3 27 5 C26.34 5 25.68 5 25 5 C24.67 4.01 24.34 3.02 24 2 C16.08 1.67 8.16 1.34 0 1 C0 0.67 0 0.34 0 0 Z " fill="#6E45BA" transform="translate(385,222)"/>
<path d="M0 0 C3.91457985 2.8395916 6.30820069 5.62527172 8.8125 9.75 C9.41707031 10.73484375 10.02164063 11.7196875 10.64453125 12.734375 C11.09183594 13.48203125 11.53914062 14.2296875 12 15 C11.34 15.66 10.68 16.32 10 17 C9.51080078 16.09507812 9.51080078 16.09507812 9.01171875 15.171875 C8.35623047 13.97304687 8.35623047 13.97304687 7.6875 12.75 C7.25824219 11.96109375 6.82898438 11.1721875 6.38671875 10.359375 C5.0603786 8.10272866 3.61115776 6.06001403 2 4 C-1.27773504 4.75150023 -1.27773504 4.75150023 -3 8 C-3.66 7.67 -4.32 7.34 -5 7 C-3.35 4.69 -1.7 2.38 0 0 Z " fill="#A54C83" transform="translate(607,200)"/>
<path d="M0 0 C2 2 2 2 2 5 C-2.62 5 -7.24 5 -12 5 C-12.33 3.68 -12.66 2.36 -13 1 C-8.71 1.66 -4.42 2.32 0 3 C0 2.01 0 1.02 0 0 Z " fill="#502859" transform="translate(621,465)"/>
<path d="M0 0 C0.33 0.66 0.66 1.32 1 2 C-0.0390625 4.3125 -0.0390625 4.3125 -1.625 7 C-2.13289062 7.886875 -2.64078125 8.77375 -3.1640625 9.6875 C-5.25309095 12.3187869 -6.8229158 13.04579041 -10 14 C-9.34 12.68 -8.68 11.36 -8 10 C-7.34 10 -6.68 10 -6 10 C-5.34 8.35 -4.68 6.7 -4 5 C-3.34 5 -2.68 5 -2 5 C-2 3.68 -2 2.36 -2 1 C-1.34 0.67 -0.68 0.34 0 0 Z " fill="#510E71" transform="translate(532,296)"/>
<path d="M0 0 C1.32 0.33 2.64 0.66 4 1 C2.38113585 2.67262717 0.7547271 4.33795537 -0.875 6 C-1.77992188 6.928125 -2.68484375 7.85625 -3.6171875 8.8125 C-6 11 -6 11 -8 11 C-7.67 9.68 -7.34 8.36 -7 7 C-5.68 6.67 -4.36 6.34 -3 6 C-3 5.01 -3 4.02 -3 3 C-2.01 3 -1.02 3 0 3 C0 2.01 0 1.02 0 0 Z " fill="#8059BA" transform="translate(520,254)"/>
<path d="M0 0 C0.33 0 0.66 0 1 0 C1 4.62 1 9.24 1 14 C0.34 13.34 -0.32 12.68 -1 12 C-1.99 12.495 -1.99 12.495 -3 13 C-2.52060632 8.28596212 -2.03165952 4.33420699 0 0 Z " fill="#6A3EAE" transform="translate(645,254)"/>
<path d="M0 0 C0 3 0 3 -1.75 4.82421875 C-2.4925 5.43910156 -3.235 6.05398437 -4 6.6875 C-4.7425 7.31011719 -5.485 7.93273437 -6.25 8.57421875 C-6.8275 9.04472656 -7.405 9.51523438 -8 10 C-8.66 9.34 -9.32 8.68 -10 8 C-8.90220176 6.84806377 -7.79650554 5.70365063 -6.6875 4.5625 C-6.07261719 3.92441406 -5.45773437 3.28632813 -4.82421875 2.62890625 C-3 1 -3 1 0 0 Z " fill="#B1498A" transform="translate(593,200)"/>
<path d="M0 0 C0 3 0 3 -1.96875 5.26171875 C-2.8040625 6.06222656 -3.639375 6.86273438 -4.5 7.6875 C-5.3353125 8.49574219 -6.170625 9.30398437 -7.03125 10.13671875 C-8.00578125 11.05904297 -8.00578125 11.05904297 -9 12 C-9.99 11.67 -10.98 11.34 -12 11 C-12 10.34 -12 9.68 -12 9 C-11.071875 8.87625 -11.071875 8.87625 -10.125 8.75 C-7.81653196 8.21189267 -7.81653196 8.21189267 -7 6 C-6 4 -6 4 -3.875 3.25 C-3.25625 3.1675 -2.6375 3.085 -2 3 C-2 2.34 -2 1.68 -2 1 C-1.34 0.67 -0.68 0.34 0 0 Z " fill="#852F79" transform="translate(579,200)"/>
<path d="M0 0 C1.32 0.66 2.64 1.32 4 2 C2.02 5.96 0.04 9.92 -2 14 C-3.21065165 10.36804504 -2.62784815 8.93468371 -1.5625 5.3125 C-1.27503906 4.31863281 -0.98757813 3.32476562 -0.69140625 2.30078125 C-0.46324219 1.54152344 -0.23507812 0.78226563 0 0 Z " fill="#453267" transform="translate(416,237)"/>
<path d="M0 0 C0.66 0.66 1.32 1.32 2 2 C1.43410156 2.77085937 0.86820313 3.54171875 0.28515625 4.3359375 C-0.44832031 5.33882812 -1.18179688 6.34171875 -1.9375 7.375 C-3.03384766 8.87160156 -3.03384766 8.87160156 -4.15234375 10.3984375 C-5.9779569 12.82817109 -5.9779569 12.82817109 -7 15 C-7.66 15 -8.32 15 -9 15 C-7.61219205 11.10993227 -5.7847773 8.03441292 -3.375 4.6875 C-2.74335937 3.80449219 -2.11171875 2.92148438 -1.4609375 2.01171875 C-0.97882812 1.34785156 -0.49671875 0.68398437 0 0 Z " fill="#933581" transform="translate(581,223)"/>
<path d="M0 0 C3.52238047 1.56367357 6.27123994 3.69495889 9.25 6.125 C10.14203125 6.84945313 11.0340625 7.57390625 11.953125 8.3203125 C12.62859375 8.87460937 13.3040625 9.42890625 14 10 C10.66234947 10 9.73896244 9.44603838 7 7.6875 C6.319375 7.25824219 5.63875 6.82898438 4.9375 6.38671875 C3.06385003 5.04569912 1.50007198 3.7485214 0 2 C0 1.34 0 0.68 0 0 Z " fill="#7148B3" transform="translate(603,283)"/>
<path d="M0 0 C0.33 0.66 0.66 1.32 1 2 C-0.328125 4.6015625 -0.328125 4.6015625 -2.25 7.625 C-2.87390625 8.62789062 -3.4978125 9.63078125 -4.140625 10.6640625 C-4.75421875 11.43492187 -5.3678125 12.20578125 -6 13 C-6.99 13 -7.98 13 -9 13 C-9 12.34 -9 11.68 -9 11 C-8.34 11 -7.68 11 -7 11 C-6.71125 10.236875 -6.4225 9.47375 -6.125 8.6875 C-5 6 -5 6 -3 3 C-2.34 3 -1.68 3 -1 3 C-0.67 2.01 -0.34 1.02 0 0 Z " fill="#AE4C87" transform="translate(598,199)"/>
<path d="M0 0 C-3.7559214 3.42931954 -8.23466745 4.56429083 -13 6 C-12 3 -12 3 -8.75 1.3125 C-5.45873369 0.16055679 -3.4127883 -0.31025348 0 0 Z " fill="#49096A" transform="translate(472,192)"/>
<path d="M0 0 C0.66 0.33 1.32 0.66 2 1 C-2 5 -6 9 -10 13 C-9.48223379 8.89552608 -7.35372556 7.04300477 -4.4375 4.25 C-3.61121094 3.45078125 -2.78492188 2.6515625 -1.93359375 1.828125 C-1.29550781 1.22484375 -0.65742187 0.6215625 0 0 Z " fill="#611272" transform="translate(532,257)"/>
<path d="M0 0 C0.99 0.33 1.98 0.66 3 1 C2.67 2.98 2.34 4.96 2 7 C0.68 7.33 -0.64 7.66 -2 8 C-1.125 1.125 -1.125 1.125 0 0 Z " fill="#351066" transform="translate(419,230)"/>
<path d="M0 0 C1.27310312 0.93441535 2.543388 1.87267111 3.8125 2.8125 C4.52019531 3.33457031 5.22789062 3.85664063 5.95703125 4.39453125 C7.78531393 5.83128877 9.39896688 7.31815763 11 9 C5.25 7.125 5.25 7.125 3 6 C3 5.34 3 4.68 3 4 C2.34 4 1.68 4 1 4 C0.67 2.68 0.34 1.36 0 0 Z " fill="#7A53B7" transform="translate(586,269)"/>
<path d="M0 0 C0.99 0.33 1.98 0.66 3 1 C0.03 3.97 -2.94 6.94 -6 10 C-6.33 8.68 -6.66 7.36 -7 6 C-6.21625 5.566875 -5.4325 5.13375 -4.625 4.6875 C-1.78301625 3.10779753 -1.78301625 3.10779753 0 0 Z " fill="#6B3EAF" transform="translate(533,242)"/>
<path d="M0 0 C0.99 0 1.98 0 3 0 C2.54554036 1.41791408 2.08625056 2.83428046 1.625 4.25 C1.36976563 5.03890625 1.11453125 5.8278125 0.8515625 6.640625 C0.04826333 8.86627958 -0.89711662 10.90931672 -2 13 C-1.85851011 11.3954444 -1.71164314 9.79136233 -1.5625 8.1875 C-1.48128906 7.29417969 -1.40007812 6.40085938 -1.31640625 5.48046875 C-1 3 -1 3 0 0 Z " fill="#7B54B9" transform="translate(409,227)"/>
<path d="M0 0 C-0.5 1.8125 -0.5 1.8125 -2 4 C-4.5863924 5.26152609 -7.25200829 6.15643045 -10 7 C-8.60449526 2.81348579 -4.64858615 0 0 0 Z " fill="#561171" transform="translate(475,171)"/>
<path d="M0 0 C0.66 0.99 1.32 1.98 2 3 C0.35 4.98 -1.3 6.96 -3 9 C-3.66 8.67 -4.32 8.34 -5 8 C-5 7.34 -5 6.68 -5 6 C-4.34 6 -3.68 6 -3 6 C-2.690625 5.38125 -2.38125 4.7625 -2.0625 4.125 C-1.375 2.75 -0.6875 1.375 0 0 Z " fill="#7E59BE" transform="translate(643,362)"/>
<path d="M0 0 C4.62 0 9.24 0 14 0 C14 0.33 14 0.66 14 1 C13.16855469 1.04898437 12.33710938 1.09796875 11.48046875 1.1484375 C10.39378906 1.22320312 9.30710937 1.29796875 8.1875 1.375 C7.10855469 1.44460938 6.02960938 1.51421875 4.91796875 1.5859375 C1.81373814 1.81195733 1.81373814 1.81195733 -1 4 C-0.67 2.68 -0.34 1.36 0 0 Z " fill="#262B34" transform="translate(417,414)"/>
<path d="M0 0 C4.41889613 1.35021826 6.34345343 3.26115668 9 7 C5.21616321 6.07506212 3.43306306 5.60628829 1.125 2.375 C0.75375 1.59125 0.3825 0.8075 0 0 Z " fill="#6E42B4" transform="translate(577,263)"/>
<path d="M0 0 C0.66 0.33 1.32 0.66 2 1 C1.26418258 2.1549921 0.51069961 3.29874185 -0.25 4.4375 C-0.66765625 5.07558594 -1.0853125 5.71367187 -1.515625 6.37109375 C-3.27248877 8.29902057 -4.46089803 8.61479436 -7 9 C-6.02180976 7.68677212 -5.0424189 6.37443848 -4.0625 5.0625 C-3.51722656 4.33160156 -2.97195313 3.60070312 -2.41015625 2.84765625 C-1 1 -1 1 0 0 Z " fill="#491672" transform="translate(441,195)"/>
<path d="M0 0 C-1.28913487 0.67154933 -2.58140204 1.33708859 -3.875 2 C-4.59429687 2.37125 -5.31359375 2.7425 -6.0546875 3.125 C-8 4 -8 4 -10 4 C-9.67 3.01 -9.34 2.02 -9 1 C-3.79245283 -1.26415094 -3.79245283 -1.26415094 0 0 Z " fill="#580E6C" transform="translate(486,168)"/>
<path d="M0 0 C1.31223496 3.93670488 0.24296256 6.12488144 -1 10 C-1.66 10 -2.32 10 -3 10 C-2.49287967 6.28111761 -1.88391785 3.26545761 0 0 Z " fill="#7145B6" transform="translate(636,285)"/>
<path d="M0 0 C2.0625 0.4375 2.0625 0.4375 4 1 C1.03 3.475 1.03 3.475 -2 6 C-1.125 1.125 -1.125 1.125 0 0 Z " fill="#8059BE" transform="translate(544,231)"/>
<path d="M0 0 C0.99 0.33 1.98 0.66 3 1 C-0.465 3.97 -0.465 3.97 -4 7 C-3.04065919 3.16263678 -2.76390737 2.40339772 0 0 Z " fill="#3C0F69" transform="translate(441,208)"/>
<path d="M0 0 C0 3.90838866 -1.50567876 5.11594107 -4 8 C-4.99 7.67 -5.98 7.34 -7 7 C-4.69 4.69 -2.38 2.38 0 0 Z " fill="#A76E8F" transform="translate(610,182)"/>
<path d="M0 0 C0.99 0.33 1.98 0.66 3 1 C1.35 2.65 -0.3 4.3 -2 6 C-2.66 5.67 -3.32 5.34 -4 5 C-3.34 4.01 -2.68 3.02 -2 2 C-1.34 2 -0.68 2 0 2 C0 1.34 0 0.68 0 0 Z " fill="#451168" transform="translate(526,304)"/>
</svg>
